<svg version="1" xmlns="http://www.w3.org/2000/svg" width="2000" height="2000" viewBox="0 0 1500.000000 1500.000000"><path d="M670.5 138c-24.2 1-38.8 2.5-74.5 7.6-19.6 2.8-53.4 10.9-82.5 19.8-55.4 17-119.9 48.8-168 82.9-91.1 64.6-161.1 148.2-207.3 247.7-28.1 60.4-47 130.1-53.6 198-2.7 26.8-2.7 82.8 0 112 1 11.7 6.4 47.2 9.2 61.6l2.8 14.1-20.5 10.4c-26.7 13.6-64 34.1-73.4 40.4-1.5 1.1-.8 1.6 5.6 3.9l7.4 2.7 10.1-6C47.5 920.3 95.4 896 98.9 896c1.1 0 1.8 2.1 6.5 19.5 13.9 51.7 40.4 110.7 72.3 160.9 23.6 37.1 48.4 68.2 80.6 101.2 8.6 8.9 15.7 16.4 15.7 16.7 0 .3-5.3 5.2-11.7 10.9-26.6 23.2-61.9 55.3-81.9 74.3l-6.3 6-.6 10-.6 10 15.3-15.1c21.2-21 41.4-39.5 69.3-63.4 5.4-4.7 13.6-11.8 18.1-15.7 4.6-4 8.7-7.3 9.1-7.3.4.1 2.2 1.3 3.9 2.8 79.7 70.1 170.1 116.9 270.6 140.2 19.6 4.5 33.2 7.2 43.3 8.5 35.2 4.6 56.4 6.5 73.1 6.5 6.9 0 11.4.4 11.4 1s3.3 1 8 1 8-.4 8-1 4.4-1 11.3-1c18.7 0 47-2.7 80.2-7.5 24.4-3.6 70.8-15.4 97.5-24.8 4.7-1.6 11.4-4 15-5.2 3.6-1.3 14.2-5.5 23.5-9.5 90.1-37.8 172.8-99.1 235.5-174.5 68.3-82.2 114.2-179.9 132.5-282.5 3.7-20.9 6.9-44.3 8.2-60.5 1-12.9 1-80.8 0-94.5-4.3-57.1-19.7-122.6-41.6-177.5-4.6-11.6-5.7-15.3-4.8-16.1.7-.6 5.7-5.1 11.2-9.9 55.2-48.3 111.3-108.7 148.3-159.7 32.5-44.7 53.5-82.4 72.2-129.3 3.7-9.4 6.6-17.2 6.5-17.4-.7-.7-8.3 7.9-14.5 16.4-12.8 17.8-26.7 33.4-50.9 57.5-43.3 43.1-92 81.9-157.6 125.7-18.9 12.6-55.4 35.5-57.5 36-1.2.3-3.9-3-9.6-11.9-4.3-6.8-14.5-21.1-22.5-31.8-37.2-49.3-76.4-88.6-124.4-124.5-33.8-25.2-58.8-40.7-95.5-59-42.9-21.5-84.7-36.5-133-48-50.9-12.1-110.4-17.8-162.5-15.5zm32.5 46.1c2.6 4.7-2.5 10-6.9 7.2-2-1.3-2.6-6-1-7.9 1.8-2.2 6.6-1.8 7.9.7zm120.4 50.1c.5 5.6 1 6.6 4.7 10 3.7 3.4 4.6 3.8 9.4 3.8 7.6 0 7.7 1.6.1 2.4-5.6.6-6.9 1.1-10 4.2-3.1 3.1-3.6 4.2-4.2 10.5-.8 8-2.4 7.5-2.4-.8 0-4.6-.4-5.6-3.8-9.1-3.5-3.7-4.4-4.1-10.8-4.7-7.6-.9-6.6-2.3 1.7-2.4 3.9-.1 5.2-.7 8.4-3.8 3.4-3.3 3.8-4.3 4.3-10 .2-3.5.8-6.3 1.2-6.3.4 0 1 2.8 1.4 6.2zm-157.1 17c2.2 2.6 2.2 4-.4 7.2-3.7 4.7-10.9 2.5-10.9-3.4 0-6.5 6.9-8.8 11.3-3.8zM737 259c2.8 2.8 2.5 6.4-.6 8.9-1.5 1.2-3.3 2.1-4.1 2.1-2.1 0-6.3-4.6-6.3-7 0-2.8 3.5-6 6.5-6 1.4 0 3.4.9 4.5 2zm-154.2 41.6c3.7 2.6 2 9.4-2.4 9.4-5.3 0-7.5-6.4-3.2-9.4 1.2-.9 2.5-1.6 2.8-1.6.3 0 1.6.7 2.8 1.6zM682 303c1.1 1.1 2 2.7 2 3.5 0 .8-.9 2.4-2 3.5s-2.7 2-3.5 2c-.8 0-2.4-.9-3.5-2s-2-2.7-2-3.5c0-.8.9-2.4 2-3.5s2.7-2 3.5-2c.8 0 2.4.9 3.5 2zm-82.6 10.2c2 5.7-5.7 9.3-9 4.3-1.5-2.3-1.5-2.7 0-5.1 2.4-3.6 7.6-3.1 9 .8zm14.2 9.3c1.5 2.3 1.5 2.7 0 5-2.8 4.2-9.6 2.4-9.6-2.5s6.8-6.7 9.6-2.5zm123.8 10.8c1.3 3.6-.2 6.1-3.8 6.5-3.5.4-5.6-1.3-5.6-4.7 0-3.6 1.9-5.3 5.5-4.9 2.2.2 3.2 1 3.9 3.1zm-147.2 7.4c2.6 2.3 2.3 5.9-.7 7.9-2.3 1.5-2.7 1.5-5 0-4.4-2.9-2.8-9.5 2.4-9.6.8 0 2.3.7 3.3 1.7zm-77.3 4.7c61 13 137.2 56.2 210.6 119.5 39.4 33.9 87.1 83.2 120.4 124.2 7.8 9.7 32.2 40.9 35.4 45.2 1 1.4 5.4 2.5 19.4 4.9 10.9 1.8 19.5 2.8 21.5 2.4 2-.3 6.1-2.9 9.9-6l6.6-5.5v29.5c0 16.2-.3 29.4-.7 29.4-.4 0-4.4-2.5-9-5.6-9-6-17.9-10.8-18.7-10.1-.2.3 4 7.2 9.5 15.3 32.4 48.7 61.4 100.9 78.6 141.4 2.7 6.3 5.3 11.9 5.7 12.4 1.6 1.9 4.2-5.3 13.3-36.9 5.2-18.2 11.3-39.3 13.6-47 8.6-29.6 16.4-57.6 20.4-73.5l4.2-16.5 22.9-16.2 23-16.2 26.2-.1h26.3l1.6 3.7c2.5 6 13.9 36.9 22.1 59.8 35.4 99.4 53.2 146.2 59.1 154.6 2.1 3 5.9 6.9 8.6 8.6l4.8 3.3h-68.6c-37.7 0-68.6-.2-68.6-.3 0-.2 3.5-4 7.9-8.4 11.6-11.9 12.3-15.5 5.9-34.8l-3.4-10h-75.9l-2.3 6.5c-3.2 9-4 20.9-1.8 28.4 2 6.6 3.6 9.7 8 14.3l3 3.3h-21.2c-11.7 0-21.2.1-21.2.3 0 .2 1.3 4.3 3 9.2 4.1 12 11.4 39.4 14.4 54 12.4 59.9 10.8 105.1-4.6 136.5-4.4 8.9-6.5 11.8-13.8 19.1-9.5 9.6-16.1 13.7-28.4 17.9-12.2 4.2-22.4 5.4-40 4.7-16.3-.6-24.3-1.8-43.9-6.7-22.8-5.6-59-18.9-60.9-22.3-.8-1.6-.7-1.9.3-1.4 39.3 16 71.5 23.7 100 23.7 22.6 0 37.6-3.7 52.3-13 7.5-4.8 17.6-15.2 22.5-23.5 4.6-7.6 9.9-21.9 12.4-33.5 2.9-13.2 3.1-50.6.3-68.5-4.1-27.1-12.5-60-22.3-88l-2.8-8-10.7-.5-10.8-.5 8-5.9c4.4-3.2 8-6.3 8-6.8 0-1.6-11.4-28.6-18.4-43.3-19.4-41.3-43.3-82.7-70.4-121.7-6.2-9-12-17.3-13-18.6-3.5-4.5-25.8-6.6-39.5-3.7-20.2 4.3-28.6 17.9-18.1 29.5 5.6 6.2 12.3 9.8 29.6 15.9 9 3.2 19.7 7.2 23.8 9 9.3 3.9 25.3 12.4 25.7 13.7.3.8-34.4 23-71.9 45.9l-7.6 4.7-18-7c-11.5-4.4-20.5-8.6-25-11.6-32.9-21.8-42.1-66.3-20.3-98 7.7-11.2 21.4-21.3 35.5-26.4 14.5-5.3 23.2-6.6 42.3-6.7 11.1 0 16.9-.3 16.5-1-1.4-2.3-17.5-22.1-28.6-35-24.6-28.7-38.7-43.8-69.5-74.5-49-48.9-88.7-82.3-129.7-109.2-87.2-57.1-160.7-72.5-202.8-42.4-32.2 23-43.3 72.7-31 139.6 6.4 34.8 16.3 67.3 33.7 110.5 11.1 27.9 31.2 70.3 43.8 92.6 2.7 4.8 4.9 9.1 4.9 9.6 0 .8-9.2 4.3-11.2 4.3-.6 0-9.5-15.2-19.7-33.6-7.8-14.1-22.4-44.3-29-60.2-20.7-49.2-33.8-95.9-38.6-138.2-2.1-18.2-1.6-56.7.9-70 6.1-31.7 19.7-55.5 39.3-68.8 10.6-7.1 17.8-10.1 32.3-13.2 12.7-2.8 37.1-2.1 53.9 1.4zM828 384c2.8 2.8 2.5 6.4-.6 8.9-1.5 1.2-3.2 2.1-3.9 2.1-2.3 0-6.5-4.1-6.5-6.4 0-5.9 6.8-8.8 11-4.6zm-291.8 45.9c.6.2 2.2 1.5 3.4 2.8 1.8 2 3.6 2.5 9.4 3 8 .7 7.5 1.7-1.2 2.6-4.8.5-6.3 1.1-9.2 4-3.2 3.2-3.6 4.2-4.2 11.4-.8 8.3-2.1 7.3-2.3-1.9-.1-4-.7-5.2-4-8.7-3.5-3.7-4.6-4.2-10-4.8-6.8-.7-8.3-2.3-2.2-2.3 6.2 0 10-1.1 10.6-3.1.3-1 1.4-2.1 2.5-2.4 1.4-.5 2-1.9 2.5-6.3 1.1-9.6 1.9-10.2 2.7-2.2.5 4.2 1.3 7.7 2 7.9zm-62-5.4c1.5 3.2-1.2 7.5-4.7 7.5s-6.2-4.3-4.7-7.5c.9-2 1.9-2.5 4.7-2.5 2.8 0 3.8.5 4.7 2.5zm20.6 24.7c.7.7 1.2 2.4 1.2 3.8 0 3.4-1.7 5-5.2 5-2.7 0-4.8-2.3-4.8-5.4 0-3.7 6.1-6.1 8.8-3.4zM277.6 631.5c1.6.5 24 37.9 61.1 102 8 13.7 16.5 28.5 19 32.8 2.5 4.3 4.7 7.6 4.9 7.4.2-.2.1-26.3-.3-58.1l-.6-57.8-3.7-5.7c-2.1-3.2-6.3-8.8-9.5-12.5-3.1-3.7-5.5-6.9-5.2-7.2.2-.2 16-.3 35.1-.2l34.7.3-8.1 8.6c-4.4 4.8-8.4 9.9-9 11.5-.7 1.9-1.1 31.3-1.1 91.1 0 102.3-1.4 90.3 12.4 107.6 4.8 6 8.7 11 8.7 11.3 0 .2-22 .4-49 .4h-48.9l-14.2-23.8c-7.8-13-21.6-36.3-30.7-51.7-26.5-45.2-30.2-51.4-37.4-63.5l-6.8-11.5v51c.1 57.5.6 66.8 4.4 74.2 2.1 4.3 13.8 18.4 17 20.5.6.4.8.9.6 1.2-.7.6-76 1.2-76 .5 0-.3 1.5-1.2 3.3-2.1 5.7-2.7 14.4-11.5 17.3-17.5l2.8-5.6-.3-89c-.2-60.9-.6-89.8-1.3-91.2-.6-1.1-4.9-6.7-9.6-12.4-4.9-6-8-10.6-7.4-11 1-.6 95.8-.3 97.8.4zm353.4 2.1c1.6 1.6 9.9 24.1 40.3 108.9 13.3 36.9 18 49.7 28.2 76 9.7 25.1 11 28.1 14.9 33.5l3.3 4.6-4.8 3.2-4.8 3.1-58.3-.5c-32.1-.3-58.6-.5-59-.5-.4.1 2.8-3.4 7.1-7.7 11.6-11.6 12.2-15.1 6-34.6l-3.4-10.6h-58.7l2.8 3.7c10.3 14 71.6 91.2 81.1 102.5 1.3 1.5.8 2.1-5.3 6.2-5.5 3.7-7 4.3-8.2 3.3-5.7-4.6-58.1-72.8-78.2-101.6l-9.4-13.4-1.3 2.9c-2.6 6.3-4.6 17.7-4.1 24.4.6 8.2 4.4 16.9 9.4 21.6l3.5 3.4h-38.2c-21.1 0-37.9-.4-37.4-.8.6-.5 4.8-3.8 9.5-7.4 11.8-9.1 18.6-16.5 20-21.9 1.3-4.9 13.6-47.6 20.7-71.9 11.6-40 18.8-66 22.9-82.7l4.5-18.3-2.8-5.1c-1.5-2.9-5.8-8.5-9.5-12.5-3.8-3.9-6.8-7.7-6.8-8.4 0-1 12.1-1.2 57.5-.8 34.5.3 57.9.8 58.5 1.4zm423 2.1c0 .6-1.4 1.8-7.3 5.9l-3.8 2.7-3.4-3.3c-5.4-5.2-4.8-5.9 5.5-5.9 5 0 9 .2 9 .6zM943.6 757.8c13.2 15.4 19.3 32.7 16.7 47.9-4.6 26.4-34.3 51.3-74.3 62.1-8.9 2.4-11 2.6-32.5 2.6-25.5 0-33.3-1.1-53.6-7.7l-10.1-3.3-10.1 7.4c-5.6 4.1-11.9 9-13.9 11l-3.8 3.6v-22.1l5.8-3.8c3.1-2.1 12.9-8.4 21.7-14l16-10.1 5.5 1.8c8.2 2.7 16.3 3.8 28.2 3.8 12.7 0 22.9-2 32-6.2 9.3-4.3 11.1-6.4 11.6-14.1.4-5.9.2-6.4-3.1-10.2-1.9-2.2-6.4-5.8-10.1-7.9-3.6-2.1-6.5-4-6.4-4.2 2.4-2.4 70.7-45.4 71.7-45.2.8.2 4.7 4 8.7 8.6zm-168.8 57.1l3.4 2.3-5.9 4c-3.2 2.1-7 4.6-8.5 5.4l-2.8 1.5V803.8l5.3 4.4c2.8 2.4 6.7 5.5 8.5 6.7zM477.1 875c2.2 1.2 2.6 5.9.7 7.8-.7.7-2.4 1.2-3.8 1.2-4.8 0-6.7-4.5-3.3-8.2 1.8-2 3.6-2.3 6.4-.8zm616.4 40c4.3 4.8-2.8 10.8-7.6 6.4-2.3-2.1-2.4-3.3-.3-6.2 1.9-2.8 5.5-2.8 7.9-.2zm79.1 23c3.2 3.3 4.2 3.7 9.2 3.9 8.7.3 9.4 1.7 1.2 2.5-6.5.6-7.5.9-10.5 4.2-2.9 3-3.4 4.4-4.1 10.7-.5 5.5-.9 6.6-1.5 4.7-.4-1.4-.7-4.4-.8-6.7-.1-3.4-.8-4.9-3.9-8.1-3.4-3.6-4.4-4-10.7-4.7-5.4-.6-6.4-1-4.5-1.6 1.4-.4 4.4-.7 6.8-.8 6-.1 11.3-5.5 11.9-12.1.8-9.1 1.6-9.9 2.5-2.6.7 6 1.3 7.4 4.4 10.6zm-523.4 2.5c6.5 6.1 17.8 15.1 33.3 26.5 17.1 12.6 28 21.7 31.9 26.6 4.3 5.4 5.9 10.8 4.6 15-1.5 4.4-8 10.1-12.6 11-14.7 2.7-42.4-21-71.5-61.4l-7.7-10.6 8.2-5.7c4.4-3.2 8.4-5.7 8.8-5.6.3.1 2.6 2 5 4.2zm456.6 4.3c1.8 2.3 1.5 6.6-.7 8.6-2.7 2.4-7 1.7-9.4-1.6-1.7-2.3-1.9-3.1-.9-5.3 2-4.4 8.1-5.4 11-1.7zm-90.4 2.3c4.8 3.8 2.3 10.9-3.9 10.9-6.8 0-8.6-8.6-2.5-11.7 3.3-1.7 3.3-1.6 6.4.8zm176.8 33.6c4 3.6 1.3 10.6-4.1 10.6-5.7 0-8.5-5.3-5-9.6 2.4-3.1 6.3-3.5 9.1-1zm-226.4.9c3.9 2.7 1.9 9.4-2.8 9.4-4.7 0-6.7-6.7-2.8-9.4 1.2-.9 2.5-1.6 2.8-1.6.3 0 1.6.7 2.8 1.6zm49 9c4.3 3 1.5 11.4-3.8 11.4-2.4 0-7-4.2-7-6.3 0-2.4 4-6.7 6.4-6.7 1.2 0 3.2.7 4.4 1.6zm-533.9 2c2.1 1.9 1.8 7.4-.4 9-6.9 5.1-14.6-4.3-7.8-9.5 2.7-2.2 5.6-2.1 8.2.5zm679.7 1.9c3 4.7-1 9.4-6.4 7.4-3-1.1-3.9-5.4-1.7-7.9 2.5-2.8 6.1-2.5 8.1.5zM317.5 1023c3.8 4.3 1.2 10.3-4.5 10.3-1.7 0-3.8-.7-4.7-1.5-3.6-3.7-.5-10.8 4.7-10.8 1.5 0 3.5.9 4.5 2zm-68.7 6.2c.7.7 1.2 2.4 1.2 3.8 0 3.3-1.7 5-5 5s-5-1.7-5-5 1.7-5 5-5c1.4 0 3.1.5 3.8 1.2zm855.9 18.4c2.6 4.1-1 8.3-6 7-3.5-.8-4.6-4.9-2.2-7.6 2.5-2.8 6.1-2.5 8.2.6zm-138.9 4c2.6 1.8 2.8 5 .5 7.6-2 2.2-4.1 2.3-6.5.1-2.5-2.2-2.3-5.9.4-7.7 1.2-.9 2.5-1.6 2.8-1.6.3 0 1.6.7 2.8 1.6zm-551.3 2.4c3.6 4-.3 9-6.1 7.6-5.2-1.3-3.4-9.6 2.1-9.6 1.2 0 3 .9 4 2zm-106.7 3.6c4.7 3.3.9 10.7-4.6 8.8-3.7-1.3-4.3-6.5-1-8.8 2.8-2 2.8-2 5.6 0zm806.2 5.8c0 4.9.3 5.7 4.1 9.5 3.9 3.9 4.5 4.1 10 4.1 7.7 0 7.6 1.6-.2 2.4-5.4.6-6.6 1.2-9.7 4.4-3.1 3.3-3.5 4.4-4.1 11.2-.8 8-1.5 7.2-2.6-3.2-.5-4.2-1.1-5.9-2.4-6.3-1-.3-2.4-1.6-3.1-2.9-1.1-2.1-2.3-2.6-8.9-3.2-6.1-.6-7-.9-4.6-1.5 1.7-.4 4.9-.7 7.2-.8 3.3-.1 4.6-.6 5.9-2.6.9-1.3 2.4-2.7 3.4-3 1.4-.4 2-2.1 2.5-7.5.8-8.1 2.5-8.4 2.5-.6zm36.6 13.1c1.5 2.3 1.5 2.7 0 5-.9 1.4-2.6 2.5-3.8 2.5-2.5 0-5.8-2.7-5.8-4.7 0-5.4 6.6-7.4 9.6-2.8zm-817.1 1c3 2.9 3.1 4.5.4 7.9-2.3 2.9-5.4 3.3-8.7 1-2.8-1.9-2.9-6.7-.2-9.4 2.7-2.7 5.6-2.5 8.5.5zm185.9 1.6c4.7 3.7 2.5 10.9-3.4 10.9-3.4 0-5.7-1.8-6.5-5.2-.5-2.1-.1-3.3 1.9-5.2 3.1-3.1 4.5-3.2 8-.5zm266.4 3.5c1.2.8 2.2 2.6 2.2 3.9 0 3-4.1 5.9-7 5-4.5-1.4-4.9-7.8-.7-9.5 3-1.2 3-1.2 5.5.6zM666 1126c2.4 2.4 2.4 2.9.4 5.8-1.7 2.4-6.2 3-8.2 1-1.7-1.7-1.5-4.8.5-7 2.1-2.4 4.8-2.3 7.3.2zm-208.9 0c2.2 1.2 2.6 5.9.7 7.8-.7.7-2.4 1.2-3.8 1.2s-3.1-.5-3.8-1.2c-.7-.7-1.2-2.4-1.2-3.8 0-4.5 3.7-6.3 8.1-4zm70.3 13.6c2.4 2.4 2 6.1-.9 8-2.3 1.5-2.7 1.5-5 0-1.7-1.1-2.5-2.6-2.5-4.6 0-4.5 5.2-6.6 8.4-3.4zm-55.2 47.6c.4 5.6.9 6.7 4.1 10 2.8 3 4.4 3.8 7.4 3.9 2.1.1 5.2.5 6.8.8 2.5.6 2 .9-3.7 1.5-5.8.7-7.2 1.3-10.3 4.3-3.3 3.2-3.6 4-4.2 10.9-.3 4.1-.9 7.2-1.2 6.9-.3-.3-.8-3.8-1.2-7.8-.3-3.9-1.1-7.3-1.7-7.5-.5-.1-2.4-1.6-4.1-3.3-2.2-2.1-4.1-2.9-6.8-3-2.1-.1-4.9-.4-6.3-.8-1.9-.6-1-.9 4.2-1.5 5.9-.7 7.2-1.2 10.3-4.3 3-3 3.5-4.3 4.1-9.9.4-3.5 1-6.4 1.4-6.4.4 0 1 2.8 1.2 6.2zm517.2-.9c3.7 2.7 1.3 9.7-3.3 9.7-2.3 0-5.1-3.1-5.1-5.6 0-2.2 3.3-5.4 5.5-5.4.6 0 1.9.6 2.9 1.3z"/><path d="M1074.7 712.1c-4.3 13.5-20.1 64.3-21.3 68.1-.5 1.7 1.3 1.8 29 1.8 16.3 0 29.6-.2 29.6-.4s-2-5.3-4.3-11.2c-2.4-6-6.9-17.4-10-25.4-3.1-8-8.5-21.9-12.1-30.9l-6.4-16.4-4.5 14.4zM554.5 706.6c-2 6.6-6 19.5-9 28.9-2.9 9.3-7 22.4-9 29-2.1 6.6-4 12.6-4.2 13.2-.4 1 5.8 1.3 29.1 1.3 16.3 0 29.6-.2 29.6-.4s-7.4-19.2-16.4-42.1l-16.4-41.8-3.7 11.9z"/></svg>